# xmcd
#
# Track frame offsets: 
#        150
#        14881
#        26522
#        41520
#        53478
#        65070
#        76018
#        90978
#        106836
#        120771
#        135550
#        146762
#
# Disc length: 2096 seconds
#
# Revision: 2
# Processed by: cddbd v1.5.2PL0 Copyright (c) Steve Scherf et al.
# Submitted via: ExactAudioCopy v1.1
#
DISCID=90082e0c
DTITLE=Δημήτρης Ψαριανός - Αν θυμηθείς τ' όνειρό μου
DYEAR=2007
DGENRE=Ελληνικά
TTITLE0=Αύριο πάλι
TTITLE1=Σπασμένα τριαντάφυλλα
TTITLE2=Σαν με κοιτάς (συμμετέχει η Γλυκερία)
TTITLE3=Μια παλιά ιστορία
TTITLE4=Δακρυσμένα μάτια
TTITLE5=Αν θυμηθείς τ' όνειρό μου
TTITLE6=Πάλι βροχή
TTITLE7=Θαλασσογραφία
TTITLE8=Σ' αγαπώ
TTITLE9=Θα 'θελα να 'χα
TTITLE10=Πού 'ναι τα χρόνια
TTITLE11=Ένω πρωινό
EXTD=
EXTT0=
EXTT1=
EXTT2=
EXTT3=
EXTT4=
EXTT5=
EXTT6=
EXTT7=
EXTT8=
EXTT9=
EXTT10=
EXTT11=
PLAYORDER=
